<svg version="1.1" id="Layer_1" xmlns="http://www.w3.org/2000/svg" xmlns:xlink="http://www.w3.org/1999/xlink" x="0px" y="0px" enable-background="new 0 0 1024 1024" xml:space="preserve" viewBox="50.73 380.63 911.37 256.55">
<path fill="#0e0b25" opacity="1.000000" stroke="none" d=" M946.223938,591.760681   C951.061768,595.261902 955.611328,598.554199 960.255798,601.915161   C959.027222,605.317383 956.161316,606.130066 953.690979,607.271484   C941.758240,612.785095 928.954956,614.801697 916.060913,616.301880   C893.180359,618.964172 870.178162,618.236023 847.215271,618.554932   C845.922363,618.572876 844.625305,618.300293 843.301270,618.159790   C842.932556,615.735962 844.332764,614.147339 845.223755,612.465637   C851.999878,599.675598 855.232239,585.978027 854.575012,571.614441   C852.868164,534.312805 825.655090,503.532806 787.855957,499.250153   C749.943176,494.954651 712.000183,522.738464 706.225464,562.931335   C703.748047,580.174133 705.627441,596.728394 713.306763,612.501526   C714.074402,614.078125 715.388428,615.598938 714.707214,617.626526   C713.040771,618.779175 711.153259,618.383362 709.370972,618.365540   C662.384583,617.896912 615.392822,617.688477 568.414734,616.780396   C543.585388,616.300476 518.744324,617.082458 493.938538,616.033936   C466.949310,614.893188 439.946594,616.048462 412.972046,615.104004   C381.984161,614.019104 350.974274,615.026550 320.002533,613.948181   C300.004578,613.251953 280.019806,613.650269 260.031464,613.355286   C253.048141,613.252197 252.827530,613.024597 255.594482,606.775635   C269.417786,575.556702 262.565369,543.523865 241.536407,521.987122   C221.246933,501.207703 195.956314,494.037781 167.832397,502.752533   C140.596771,511.192047 124.555763,530.925415 117.403008,558.098511   C114.254570,570.059265 114.577965,582.103577 117.980614,594.038452   C118.285805,595.108887 118.233849,596.281189 118.386818,597.791870   C115.493927,597.924561 113.435791,596.354370 111.269325,595.443481   C97.762138,589.764771 84.183403,584.228577 72.905884,574.422852   C55.445045,559.240784 48.615833,540.282715 51.317699,517.340210   C52.928692,503.660645 59.050152,492.852203 68.967239,483.706665   C71.859741,481.039215 74.969803,479.816895 78.811722,479.647430   C100.120667,478.707367 121.456070,477.976410 142.758240,478.802185   C171.322845,479.909515 199.910950,481.551117 227.124237,491.697327   C244.162491,498.049927 260.457916,506.018005 276.473694,514.604004   C314.185028,534.820984 354.668518,547.184998 396.175537,556.611755   C446.828247,568.115662 497.835571,577.869995 548.884705,587.400452   C561.760925,589.804321 574.725891,591.970398 587.748474,593.222778   C592.239868,593.654724 596.797729,595.339844 602.962097,594.104492   C588.010681,590.317993 574.457336,586.866333 560.894043,583.454102   C502.438599,568.747803 443.954010,554.156067 385.540222,539.286133   C369.745453,535.265381 354.127655,530.547974 339.724762,522.546997   C333.579071,519.133057 328.366150,514.771851 325.300629,508.454681   C312.045654,481.139832 290.846283,460.945007 267.130951,442.955017   C266.865479,442.753662 266.575256,442.572357 266.351074,442.331085   C264.831482,440.695496 261.722870,439.872192 262.278961,437.164276   C262.802704,434.613770 265.762451,434.351990 267.899902,433.588470   C281.276093,428.810425 295.327423,427.089386 309.214111,424.671051   C318.006409,423.139862 326.751099,420.434021 335.781799,421.548248   C350.126709,423.318176 362.736633,429.746826 374.854797,437.191315   C379.533875,440.065796 384.326294,442.905792 388.484528,446.445770   C396.244843,453.052307 405.303253,454.468140 414.981018,454.688324   C440.276825,455.263916 465.580963,455.737213 490.857605,456.817657   C516.793030,457.926239 542.743896,458.668304 568.665222,459.923920   C579.286804,460.438416 589.988220,459.775421 600.556946,461.450348   C601.707764,461.632690 602.906860,461.682281 603.708557,460.584045   C603.882996,459.755585 603.408081,459.260406 602.824219,458.963013   C575.684937,445.138641 549.026672,430.330017 520.757263,418.815735   C497.633850,409.397369 473.514557,404.559509 448.707153,402.200562   C426.748505,400.112488 404.822052,399.837463 382.887207,401.475677   C363.343353,402.935303 343.988953,406.101959 324.685181,409.446167   C294.358093,414.700012 264.321381,421.140961 235.524353,432.353882   C229.666061,434.634979 223.682785,436.668121 217.991455,439.946503   C219.111908,442.355164 221.349182,442.761810 223.220810,443.592377   C245.045715,453.277435 266.326294,463.917480 284.943665,479.148651   C291.006714,484.108887 297.080841,489.074951 298.602722,497.550232   C299.703125,503.678375 297.747620,505.721191 291.679321,503.859192   C282.875519,501.157867 275.006317,496.348083 266.719818,492.477844   C249.083344,484.240601 231.598846,475.618652 212.509338,471.054047   C195.514847,466.990387 178.197388,467.337189 160.906281,467.167786   C138.919754,466.952362 116.992783,468.348297 95.056625,469.463318   C89.258377,469.758057 83.482063,470.541412 77.706169,471.193390   C75.090446,471.488617 72.910088,471.163788 70.927444,469.083435   C66.099983,464.018005 61.072067,459.143250 56.109707,454.207001   C54.514870,452.620544 53.012268,450.875854 53.977760,448.517395   C55.009155,445.998016 57.388809,445.634766 59.844193,445.644623   C65.677307,445.668060 71.521240,445.420929 77.341988,445.690094   C105.863434,447.009064 133.080490,441.192719 159.933746,431.991669   C197.355164,419.169586 234.716263,406.031677 273.376495,397.234802   C297.799011,391.677582 322.431854,387.360687 347.346039,384.512848   C368.853729,382.054382 390.389374,380.762756 412.019653,380.656769   C472.329468,380.361267 529.434875,393.181976 582.767273,421.891083   C601.243469,431.836945 620.143616,440.997681 638.575134,451.022675   C644.571411,454.284119 650.864014,453.805878 656.994995,454.435852   C672.020935,455.979767 687.170898,456.301849 702.204956,457.785004   C719.371216,459.478485 736.540955,461.168121 753.659973,463.417999   C774.234741,466.122101 794.677490,469.441315 814.991760,473.643158   C857.129089,482.358856 897.192139,496.812500 935.200439,516.964722   C943.310059,521.264526 950.779297,526.584595 958.398621,531.673706   C962.354248,534.315796 962.969177,537.267212 960.991211,541.411133   C957.352539,549.034546 952.091919,555.438354 946.477905,561.619202   C941.782166,566.789124 937.129883,571.998535 932.058960,577.634094   C935.471313,582.425720 940.564819,587.119324 946.223938,591.760681  M506.174042,496.946167   C522.313721,498.847687 538.443970,500.834442 554.596130,502.623444   C567.293152,504.029785 579.993103,505.684052 592.736755,506.308899   C603.197388,506.821808 613.660706,508.227570 624.162659,507.472107   C638.918396,506.410614 653.743408,506.428223 668.450134,504.641235   C675.003540,503.845001 681.544250,502.943604 688.090698,502.089905   C668.259338,497.767059 373.476654,476.007751 368.221222,478.774536   C380.124603,482.021667 392.379730,482.987946 404.511505,484.634003   C421.272888,486.908234 438.073578,488.898682 454.868866,490.915436   C471.666473,492.932556 488.478180,494.832458 506.174042,496.946167  M857.178894,510.509155   C853.575806,510.829590 850.105896,508.779144 846.025757,509.825623   C859.394592,521.065979 873.272400,530.652649 889.922974,535.468445   C906.520447,540.268921 923.107117,539.098755 940.391235,535.702271   C937.812195,533.039734 935.206177,532.331177 932.781433,531.368652   C908.607483,521.772339 883.678650,514.893799 857.178894,510.509155  M350.485931,589.677429   C389.997498,591.215393 429.510742,592.657410 469.062195,592.175354   C457.911804,590.168335 446.708282,589.050354 435.474487,588.117920   C418.280609,586.691040 401.117767,584.892639 383.927338,583.420776   C367.389679,582.004761 350.792755,581.177979 334.299622,579.379456   C322.676178,578.112000 313.128876,582.509094 303.672760,588.264404   C319.008270,588.002319 334.208496,590.099854 350.485931,589.677429  z"/>
<path fill="#0e0b25" opacity="1.000000" stroke="none" d=" M840.390259,593.066711   C832.289856,616.267883 817.028687,631.229004 792.944092,635.792419   C761.003723,641.844421 727.764038,627.721985 718.306763,592.810242   C708.188599,555.458801 731.719421,518.864990 769.629333,512.513306   C805.411072,506.518158 837.825500,531.844116 842.538391,567.595581   C843.682800,576.276794 842.479980,584.420105 840.390259,593.066711  M768.987854,616.567749   C797.458862,623.233093 825.384521,601.431396 821.594727,568.211426   C818.781860,543.554443 791.514648,526.352600 767.083130,534.028381   C746.503662,540.493896 736.134033,557.036865 736.671936,576.652893   C737.172058,594.889709 747.459717,610.102539 768.987854,616.567749  z"/>
<path fill="#0e0b25" opacity="1.000000" stroke="none" d=" M252.345673,575.922852   C252.167709,605.839233 227.569107,632.984253 198.443588,636.494324   C176.887146,639.092102 157.927780,633.889099 143.036560,617.930542   C126.729149,600.454346 122.422554,579.255737 129.183578,556.704651   C136.216965,533.245300 152.135254,517.562622 176.617599,513.113831   C219.930664,505.243256 253.268829,539.103516 252.345673,575.922852  M231.658218,575.433472   C232.049927,568.999329 230.875809,562.824829 228.217026,556.992371   C219.234741,537.288330 196.833649,527.271484 176.533691,534.025635   C156.416351,540.719177 143.829803,559.435181 147.696442,583.291321   C151.183472,604.805664 171.644012,619.654968 193.549240,617.614258   C214.641525,615.649231 231.442978,597.460571 231.658218,575.433472  z"/>
</svg>