<svg version="1.1" id="Layer_1" xmlns="http://www.w3.org/2000/svg" xmlns:xlink="http://www.w3.org/1999/xlink" x="0px" y="0px" enable-background="new 0 0 1024 1024" xml:space="preserve" viewBox="75.22 370.33 873.3 295.23">
<path fill="#0e0b25" opacity="1.000000" stroke="none" d=" M578.999512,623.338745   C539.345276,622.893555 500.183411,622.782776 461.039734,621.881592   C438.045715,621.352234 415.053741,621.671387 392.065796,621.120789   C364.759460,620.466797 337.449677,619.958374 310.141571,619.377014   C308.828522,619.349060 307.453552,619.524658 305.987274,618.279602   C313.569427,588.098450 309.794739,560.097107 287.738251,536.266541   C273.203827,520.562988 254.965118,512.491333 233.800293,511.489807   C195.059586,509.656616 146.754547,542.023743 152.315109,604.719421   C145.403351,606.558044 138.459137,605.088989 131.685989,604.164612   C121.827209,602.819275 112.071388,600.651978 102.630219,597.317261   C84.374405,590.869202 76.984940,579.029419 75.661743,559.446045   C75.471191,556.625854 75.906700,553.750610 75.587082,550.954041   C74.024704,537.283508 77.683434,524.899536 84.743652,513.390503   C87.122017,509.513458 87.673706,505.486389 87.724251,501.041382   C87.867928,488.405609 86.604385,475.725922 88.662041,463.139130   C88.848877,461.996246 89.040588,460.842804 89.371544,459.736603   C94.175285,443.678711 92.582848,445.036346 108.900833,443.543335   C126.549713,441.928589 144.562347,443.341797 161.739380,437.535583   C176.635132,432.500488 190.516220,425.163605 204.434479,418.056366   C236.160049,401.856110 269.083832,388.929413 303.673950,380.460999   C325.169891,375.198364 347.069641,372.724396 369.198029,371.406006   C383.849792,370.533051 398.506561,370.486694 413.120575,370.359894   C432.219604,370.194153 451.362000,370.942078 470.468140,372.405090   C485.383240,373.547119 500.198486,375.144043 514.999268,377.252136   C531.232544,379.564301 546.048767,385.818176 560.634338,392.752106   C588.338501,405.922546 614.884338,421.256287 641.489441,436.472717   C646.403442,439.283203 651.451965,441.857544 656.381958,444.640961   C666.734619,450.486115 677.972900,452.662048 689.705200,453.756531   C703.228149,455.018066 716.687012,457.074127 730.126465,459.098511   C752.589050,462.482178 775.041626,465.950287 797.449036,469.679352   C834.256592,475.804962 871.404663,480.201630 907.352295,490.800690   C918.073059,493.961700 927.733337,498.781738 935.069092,507.682495   C939.788635,513.408936 941.198181,519.686401 940.056885,526.793762   C939.767883,528.593262 939.736511,530.448669 939.299561,532.207031   C938.153320,536.818726 938.218628,540.026123 943.492126,542.937927   C947.910706,545.377747 947.636780,551.741089 948.186462,556.606873   C948.877563,562.724548 948.462952,568.931824 947.023010,574.967773   C945.962463,579.413330 944.119263,583.044312 939.608032,585.560791   C934.940247,588.164490 937.759888,593.407166 937.586121,597.440674   C937.461243,600.338684 940.424866,599.428345 942.272949,599.639099   C943.844971,599.818420 946.152222,599.289124 946.103821,601.690613   C946.035828,605.064148 946.384094,608.762634 942.579834,610.869629   C936.556091,614.205994 930.112488,616.474915 923.489319,618.114685   C900.355286,623.842407 876.737488,624.298584 853.085815,624.215820   C852.097778,624.212341 851.075073,624.158508 849.863770,622.831543   C859.613281,589.257935 855.430969,558.355774 828.582397,533.032532   C812.305664,517.680664 792.578369,510.841248 770.510071,512.564453   C743.629639,514.663452 722.084412,527.198792 708.083191,550.414673   C694.217224,573.406189 693.217102,598.142029 702.838074,624.376831   C660.987488,622.989563 620.243347,623.527344 578.999512,623.338745  M452.333344,440.366516   C452.534088,440.999725 452.735718,441.632660 452.935425,442.266205   C457.139374,455.603424 457.144836,455.370636 471.225952,455.701508   C493.838043,456.232758 516.458923,456.791107 539.041199,457.992767   C548.021118,458.470612 556.999451,458.413757 565.970215,458.905243   C583.233582,459.851105 600.508911,460.577240 617.780151,461.376740   C618.628784,461.416046 619.422424,461.172028 620.161743,459.469330   C587.691589,435.897797 554.306885,413.657562 515.316223,401.676849   C490.690002,394.109924 465.258759,391.423126 438.499847,390.588287   C442.214874,407.999573 447.540863,423.697754 452.333344,440.366516  M415.737274,426.363220   C414.261536,416.197083 412.668335,406.046021 411.362549,395.858124   C410.763794,391.186584 408.399658,390.122314 403.953613,390.191589   C387.482025,390.448395 371.051636,391.348572 354.744537,393.546448   C340.606628,395.451935 326.506897,397.774902 312.907837,402.418396   C309.292358,403.652954 307.643127,405.132690 308.049774,409.492859   C309.174744,421.555786 309.852386,433.675476 310.206573,445.787384   C310.337585,450.267365 311.608887,451.935333 316.177887,452.022797   C329.481934,452.277618 342.774780,453.145020 356.078827,453.370117   C375.716309,453.702393 395.359772,453.674103 415.000397,453.836670   C417.748413,453.859406 418.898865,452.736847 418.726746,449.920044   C418.260864,442.297485 417.170685,434.761322 415.737274,426.363220  M255.558517,472.273712   C246.568939,472.131927 238.901169,468.236023 231.443970,463.760529   C229.661911,462.691040 228.589935,461.014465 227.731110,459.169220   C223.623795,450.344391 227.599350,442.337341 238.652969,437.588135   C239.032150,438.470612 239.238434,439.497375 239.821793,440.219574   C243.615082,444.915253 246.640610,451.009338 253.467682,451.541351   C263.411285,452.316193 273.414795,452.417023 283.396454,452.580933   C293.236206,452.742493 293.222443,452.619232 293.695648,442.550659   C293.765594,441.062836 294.147644,439.591370 294.247375,438.103088   C294.875763,428.726166 295.465118,419.346649 296.073669,409.869415   C293.059784,409.868256 290.962158,410.894592 288.802185,411.733521   C273.124237,417.822693 257.825378,424.807861 242.749023,432.206573   C234.435913,436.286194 226.111771,440.851349 220.140640,448.336578   C214.518005,455.384949 215.029236,460.433167 221.484024,466.609406   C222.388245,467.474640 223.849808,467.949280 223.876755,470.230255   C214.686508,470.518280 205.545425,468.676758 196.362350,469.816376   C202.620682,470.357361 208.721085,471.937592 214.929932,472.597076   C227.478302,473.930054 240.073212,474.819336 252.642303,475.964264   C269.531921,477.502747 286.416260,479.099640 303.301056,480.690643   C319.522308,482.219116 335.737732,483.810699 351.962250,485.303345   C368.519196,486.826630 385.058533,488.986084 401.651306,489.571869   C427.945587,490.500183 454.277496,490.408569 480.594421,490.634247   C495.756531,490.764282 510.921814,490.549225 526.083313,490.709686   C541.714294,490.875092 557.342834,491.288330 572.971619,491.632812   C579.480713,491.776245 585.995605,491.378937 592.535278,492.021118   C589.187439,490.926422 585.797852,490.537842 582.397034,490.351440   C568.270508,489.577301 554.137878,488.912659 540.012573,488.117401   C518.259338,486.892578 496.510803,485.584351 474.759247,484.329529   C461.639771,483.572662 448.517242,482.868958 435.398010,482.107635   C414.310944,480.884003 393.228882,479.570892 372.138245,478.412994   C356.523254,477.555725 340.894684,476.948242 325.278168,476.116180   C302.348328,474.894440 279.423859,473.571533 255.558517,472.273712  M405.080231,581.496948   C395.421265,581.056946 385.890137,579.885132 376.517242,577.332886   C354.493744,571.335754 335.487366,561.075073 322.687469,541.222290   C318.074219,534.067078 311.860260,528.153503 305.288513,522.706238   C298.907928,517.417419 291.488556,514.430908 283.114960,512.288391   C283.887146,515.075745 285.867523,515.861023 287.337250,517.075012   C296.619659,524.741943 305.288422,532.906799 311.523010,543.427063   C316.294373,551.478271 322.170929,558.785645 329.022980,565.163147   C337.169556,572.745605 345.776581,580.075256 356.947327,582.512268   C379.383636,587.407043 402.250214,589.386536 425.128082,590.510803   C454.546844,591.956726 483.998718,592.795532 513.444214,593.609985   C536.913635,594.259216 560.394226,594.522095 583.871155,594.869995   C592.770020,595.001831 601.672485,594.891357 610.573303,594.891357   C598.643433,593.325134 586.741577,591.984802 574.804138,591.472290   C556.196289,590.673340 537.615845,589.475891 519.022400,588.468140   C495.273804,587.181213 471.487946,586.576294 447.741669,585.254333   C433.799286,584.478149 419.902618,582.880005 405.080231,581.496948  M894.608032,511.173676   C876.375366,507.139832 858.147522,503.027100 838.776062,507.075897   C839.479675,508.430481 839.685791,509.068390 840.080872,509.551910   C846.589050,517.517334 855.210632,522.455017 864.463318,526.462952   C882.359497,534.214966 901.459229,535.350098 920.533386,536.591248   C922.218628,536.700867 923.950684,536.665771 924.522766,534.506653   C925.781189,529.757080 927.051575,525.010620 928.423889,519.862427   C917.389954,516.345764 906.417175,513.816040 894.608032,511.173676  M96.753876,497.016693   C116.002296,495.519318 128.149277,482.276154 141.737061,470.531128   C140.670700,469.916046 140.263306,469.480316 139.843781,469.468292   C126.860832,469.095856 113.876221,468.781799 100.893166,468.412628   C98.440178,468.342896 97.475220,469.932220 96.454048,471.762756   C91.832535,480.047180 94.263931,488.389374 96.753876,497.016693  z"/>
<path fill="#0e0b25" opacity="1.000000" stroke="none" d=" M809.687134,649.271545   C808.856995,649.778748 808.294739,650.134705 806.684082,651.154480   C820.731201,651.867554 833.735474,652.990356 846.793335,652.562012   C860.140137,652.124207 873.412842,653.692139 886.743408,653.657715   C899.907532,653.623779 913.023621,654.407104 925.998352,657.091064   C919.059143,660.236145 911.673523,659.932190 904.555542,660.225647   C860.122192,662.057312 815.669067,663.070435 771.193115,663.650757   C739.538208,664.063721 707.882263,663.964233 676.232056,664.454834   C565.260193,666.174988 454.284424,665.509216 343.312500,664.822327   C318.327850,664.667786 293.322784,665.025391 268.348480,664.113831   C238.370636,663.019592 208.372437,663.732544 178.403503,662.827698   C152.458725,662.044373 126.535812,660.524292 100.606750,659.257812   C98.672989,659.163391 96.767479,658.490540 94.861801,657.250183   C128.968277,652.756287 163.297729,652.893982 198.026443,651.384094   C173.466476,633.518433 161.390305,610.327576 165.989243,579.943481   C168.804993,561.340515 178.501419,546.824219 193.783417,536.056885   C222.347382,515.931458 260.291443,521.924988 282.655487,549.666199   C303.262665,575.228027 304.295715,624.464478 264.685333,650.893555   C423.644775,649.232178 582.603577,649.038391 741.707397,650.799072   C735.742615,644.970398 729.379211,640.271179 724.362854,633.968384   C692.797729,594.308105 713.651062,535.968872 763.233337,525.946533   C796.671204,519.187561 833.612305,541.123901 840.294617,578.112061   C845.739197,608.248901 835.302368,631.959656 809.687134,649.271545  M256.888580,624.411804   C267.357544,615.091675 271.957092,603.474243 271.725189,589.426941   C271.250122,560.648621 239.400085,540.675659 213.728363,553.342407   C191.616608,564.252625 183.555191,592.307312 195.991135,613.542358   C208.088089,634.198486 235.922272,641.138306 256.888580,624.411804  M739.521667,572.070801   C734.703430,580.986023 733.773132,590.699158 735.693237,600.263123   C739.570801,619.577271 757.034058,635.886230 780.007446,633.775940   C798.407959,632.085632 815.423889,614.429993 816.629700,594.704590   C817.838623,574.928223 805.660706,556.952271 787.277466,551.377441   C768.497498,545.682312 750.118286,553.450684 739.521667,572.070801  z"/>
</svg>