<svg version="1.1" id="Layer_1" xmlns="http://www.w3.org/2000/svg" xmlns:xlink="http://www.w3.org/1999/xlink" x="0px" y="0px" enable-background="new 0 0 1024 1024" xml:space="preserve" viewBox="65.15 372.85 894.98 274.65">
<path fill="#0e0b25" opacity="1.000000" stroke="none" d=" M546.348633,593.503174   C562.331848,596.117554 577.867432,598.819519 593.464661,601.099060   C597.987183,601.760010 602.531860,603.032227 608.100403,602.442627   C603.776550,600.116272 599.804565,599.349060 595.938354,598.338928   C547.394287,585.655090 498.663727,573.660828 450.555054,559.362061   C423.447235,551.304993 396.421265,542.956604 370.244385,532.156433   C352.349213,524.773193 338.217590,513.517578 331.014984,494.659607   C324.607574,477.883698 312.364899,466.342926 296.657623,457.872131   C285.245361,451.717590 273.846039,445.358337 263.813843,436.989594   C254.640076,429.336914 255.112396,426.745728 266.338684,422.795288   C292.751831,413.500763 320.080078,410.320190 347.882843,411.863953   C359.589325,412.513947 370.487579,417.281342 381.123199,422.065582   C395.110687,428.357544 408.594391,435.656433 421.821228,443.416321   C424.545471,445.014587 427.812500,446.365631 429.598389,448.751892   C434.059998,454.713257 440.000732,454.602753 446.464813,454.765808   C496.946655,456.039459 547.435364,455.528870 597.921448,455.587494   C600.096985,455.590027 602.619385,456.525055 604.560242,454.074738   C604.006287,451.712463 601.851562,450.907013 600.100952,449.866455   C561.402039,426.863403 520.694092,408.573547 476.786224,398.002228   C461.718140,394.374481 446.245026,393.524811 430.830902,392.288361   C414.000061,390.938293 397.177246,391.377441 380.417816,392.529694   C351.887054,394.491302 323.575592,398.337158 295.666504,404.799225   C276.235626,409.298248 256.722626,413.460297 237.596527,419.187164   C236.644135,419.472351 235.663910,419.694794 234.750931,420.076324   C229.848175,422.125244 229.394348,423.786896 232.939789,427.687714   C239.396118,434.791229 247.407654,439.959137 255.391174,445.086670   C268.143188,453.276855 281.075653,461.185486 293.865967,469.316711   C304.043365,475.786865 311.598846,484.325958 314.628326,496.348389   C315.248444,498.809235 316.308350,501.649506 314.548279,503.487122   C312.421448,505.707703 309.871216,503.453247 307.730804,502.440033   C293.729095,495.812042 280.301117,488.055084 266.212891,481.572235   C240.685852,469.825623 213.913589,463.348267 185.945068,461.233582   C158.616379,459.167297 131.403442,460.502838 104.197998,463.116882   C99.396904,463.578217 94.567291,463.829865 89.745148,463.950745   C87.056129,464.018188 84.506599,463.227203 82.275291,461.546478   C77.192696,457.718048 72.770660,453.203308 68.485100,448.533661   C66.892563,446.798431 66.102867,444.790466 66.930977,442.579468   C67.841644,440.147949 70.212418,440.625458 72.127174,440.668304   C84.629097,440.948059 97.114487,440.418243 109.572365,439.584747   C123.604172,438.645966 137.127136,435.115570 150.147293,429.907471   C195.965820,411.579834 243.242294,398.075470 291.312744,387.266357   C314.647491,382.019318 338.307556,378.784546 362.140564,376.470764   C387.861359,373.973724 413.631622,373.548309 439.411926,372.932831   C491.497314,371.689240 540.042786,384.807373 586.245178,408.353394   C607.753357,419.314545 629.573914,429.672028 650.815552,441.163452   C655.317200,443.598816 659.923950,444.647980 665.103210,444.759613   C689.041931,445.275665 712.773621,448.065430 736.478210,451.412811   C763.795410,455.270355 790.829773,460.335968 817.503601,467.398376   C849.751709,475.936584 879.872375,489.536987 908.990601,505.532501   C925.951355,514.849548 942.212097,525.228699 957.184509,537.583679   C960.403748,540.240173 960.765259,542.718567 959.266907,546.233398   C956.546326,552.615173 952.581970,558.140259 947.822571,563.083618   C940.549255,570.638062 933.357483,578.293579 924.303101,584.929321   C932.548462,596.149048 944.392212,601.500244 956.525024,606.481628   C955.911926,610.509644 952.860168,612.171631 950.237183,614.072632   C941.389404,620.485168 930.906311,621.926208 920.519775,623.205200   C896.726257,626.135010 872.850159,628.056519 848.839233,627.297119   C842.729492,627.103882 836.627991,626.650269 830.848389,626.334045   C829.892334,624.708313 830.681030,623.888245 831.181274,623.118652   C842.988159,604.954407 847.214050,585.147705 844.805603,563.648132   C842.184631,540.251587 832.578674,520.597961 814.544189,505.367432   C782.262634,478.105133 734.166260,480.052399 704.051575,509.753510   C688.095825,525.490173 679.558472,544.502197 678.092102,566.995728   C676.875305,585.662170 680.539551,602.974243 689.661072,619.220825   C690.040344,619.896301 690.136414,620.730896 690.495972,621.930054   C545.896851,619.794067 401.631104,619.268677 257.555420,612.843201   C256.687012,611.828491 257.088684,610.862000 257.521118,609.979187   C264.285614,596.168518 266.546478,581.454285 265.591675,566.295654   C263.259644,529.272278 238.421402,498.092896 200.887955,492.526398   C167.338837,487.550873 134.251602,508.694733 122.395470,542.090393   C115.841499,560.551147 115.304756,579.137512 121.854584,597.603943   C121.045631,598.567932 120.166389,598.488037 119.432121,598.133240   C97.786415,587.674500 79.184135,574.173218 69.625076,550.803223   C62.069099,532.330261 64.830986,514.701172 72.409454,497.190552   C73.730461,494.138245 75.574104,491.303986 76.795151,488.218170   C80.099281,479.868042 86.272118,476.697479 95.057175,475.588593   C123.160416,472.041351 151.304214,469.574127 179.627548,470.750885   C213.307541,472.150208 244.321289,481.918396 272.168945,501.310303   C300.244568,520.861023 329.040527,539.149475 361.680908,550.420105   C391.273590,560.638367 421.590057,568.183838 452.183136,574.595581   C483.375916,581.132935 514.673035,587.172424 546.348633,593.503174  M608.121094,504.598419   C629.499634,502.246674 651.055603,501.265594 672.199341,496.512756   C572.166687,484.083130 471.670624,477.441101 371.667786,465.615448   C372.968903,466.716675 374.350861,467.223724 375.763733,467.620789   C393.991333,472.743408 412.484131,476.753204 430.986847,480.714142   C461.649811,487.278320 492.443542,493.132019 523.446533,497.880615   C542.629517,500.818756 561.684326,504.790588 581.204895,504.860321   C589.862366,504.891205 598.520447,504.716431 608.121094,504.598419  M875.362427,531.190247   C895.250854,537.027527 915.590027,538.913391 936.340332,538.027954   C899.248535,525.681519 865.728699,504.406555 827.396912,495.248749   C840.975525,503.554016 853.178406,513.488708 864.733765,524.279236   C867.651978,527.004272 870.833069,529.460999 875.362427,531.190247  M405.523834,587.318115   C382.539429,583.968323 359.521240,580.810974 336.301666,579.760010   C328.397034,579.402222 320.769806,581.627563 313.549438,585.343567   C358.283264,589.824341 402.943085,594.273193 447.931458,594.245056   C434.321686,590.554688 420.306580,589.328369 405.523834,587.318115  z"/>
<path fill="#0e0b25" opacity="1.000000" stroke="none" d=" M724.811523,646.925537   C664.167969,647.454224 604.000366,647.857056 543.842224,646.846191   C525.348206,646.535461 506.854797,646.682312 488.365204,646.267456   C436.390961,645.101318 384.408875,644.560547 332.424103,644.080872   C304.607513,643.824219 276.797089,642.835144 248.985657,642.107727   C228.008606,641.559021 207.029495,641.033508 186.060257,640.255859   C162.938736,639.398560 139.825424,638.307495 116.713463,637.214417   C112.358788,637.008423 108.027130,636.315369 103.684853,635.847046   C103.677444,635.394775 103.670044,634.942566 103.662636,634.490295   C121.167976,633.372986 138.673325,632.255615 157.683258,631.042236   C147.391983,623.841919 139.782410,616.213501 134.601562,606.533264   C115.031960,569.968201 128.665009,518.419495 172.741806,504.329437   C206.340500,493.588959 243.484726,513.682312 253.121017,548.767944   C261.430420,579.022400 255.107422,605.740601 231.349319,627.370483   C230.980652,627.706116 230.620926,628.054688 230.290237,628.426758   C230.200226,628.528015 230.231720,628.737183 230.030762,630.059937   C391.681091,627.231323 553.121643,628.687012 715.388794,634.310852   C710.652100,629.564941 706.366638,625.455994 702.897400,620.643005   C692.937134,606.824829 688.185059,591.384766 688.252808,574.360352   C688.342468,551.821960 695.459167,532.181641 712.145020,516.612427   C726.454651,503.260315 743.613159,497.271332 763.148926,497.439148   C801.015503,497.764496 831.649719,527.362488 834.511108,565.277405   C837.154602,600.305603 821.488281,622.912292 802.707581,638.231140   C829.185730,638.824097 854.934937,640.358765 880.688293,642.651489   C828.920349,645.684082 777.096130,645.972046 724.811523,646.925537  M750.913879,521.395569   C740.137695,524.104065 730.750122,529.165771 723.628784,537.871582   C713.316223,550.478699 709.614258,564.785889 711.184631,581.087830   C714.000549,610.319641 743.797791,632.048279 772.151855,624.867065   C800.096741,617.789490 816.971802,589.164307 810.037415,560.601685   C803.360962,533.101501 778.269958,516.189087 750.913879,521.395569  M233.010559,584.521484   C235.838379,573.922058 235.308777,563.462036 231.608017,553.165344   C220.155090,521.299744 181.525375,512.814026 158.896286,537.178162   C142.047668,555.318665 141.590729,585.883667 157.889862,604.500854   C170.799042,619.245972 190.435608,623.881165 207.674927,615.522766   C220.427231,609.339905 228.735870,598.968811 233.010559,584.521484  z"/>
</svg>