<svg version="1.1" id="Layer_1" xmlns="http://www.w3.org/2000/svg" xmlns:xlink="http://www.w3.org/1999/xlink" x="0px" y="0px" enable-background="new 0 0 1024 1024" xml:space="preserve" viewBox="78.27 362.17 864.12 310.33">
<path fill="#0e0b25" opacity="1.000000" stroke="none" d=" M647.999878,624.377686   C532.086060,624.377869 416.672211,624.377869 300.620483,624.377869   C309.637360,589.186279 305.102875,557.740967 280.144531,531.153259   C265.004425,515.024719 246.103073,506.693939 223.989868,505.351288   C173.209030,502.268066 124.139122,540.115845 131.484680,609.085510   C125.287842,609.359131 119.397224,607.396118 113.369614,606.926453   C106.291809,606.374817 101.376221,602.769104 97.637413,596.918091   C95.042976,592.857971 91.868759,589.173157 89.151047,585.185974   C82.295677,575.128601 76.891151,564.649475 78.586716,551.778809   C79.169525,547.354919 78.581322,542.788269 78.743210,538.294556   C78.968422,532.042786 80.468544,526.357361 84.552200,521.185852   C90.552361,513.587158 89.804924,504.318390 87.850998,495.806549   C85.324081,484.798523 84.922447,473.771820 84.768448,462.654114   C84.700539,457.751465 86.950729,453.659210 90.467644,450.300903   C100.523140,440.698853 112.107582,433.150635 123.676353,425.572876   C135.933655,417.544128 148.340668,409.734283 160.115509,400.989990   C161.707443,399.807770 163.254654,398.565308 164.732437,397.420532   C164.641861,394.951477 162.839233,394.114166 161.453766,393.040680   C157.898468,390.285889 154.297363,387.587677 150.657242,384.945862   C148.620895,383.467987 147.157211,381.803650 147.950729,379.091858   C148.699005,376.534515 150.930450,376.046265 153.087891,375.859863   C162.355423,375.059265 171.629837,374.326111 180.909531,373.680664   C199.641113,372.377838 218.371704,371.047638 237.114212,369.919647   C252.224762,369.010254 267.352539,368.388245 282.472046,367.626709   C307.222839,366.380157 331.965973,364.951569 356.726013,363.930542   C374.026184,363.217163 391.347290,362.915619 408.662445,362.689819   C423.990234,362.489899 439.362793,363.366730 454.645599,362.514130   C500.175507,359.974060 541.629761,372.286560 581.081055,394.256805   C610.033508,410.380310 639.136230,426.247528 667.934082,442.648895   C673.061890,445.569366 678.433350,445.708923 683.752930,446.434418   C712.678040,450.379425 741.681396,453.758057 770.589905,457.815796   C814.021545,463.912109 857.100464,471.884674 899.096008,484.802338   C911.792419,488.707703 924.569092,492.759399 934.219666,502.882294   C937.530457,506.355164 939.326904,510.113708 939.320435,514.893494   C939.301514,528.868652 939.933777,542.818359 941.294128,556.729675   C941.746887,561.359619 940.892029,565.581787 938.325989,569.572266   C934.108215,576.131287 930.133423,582.846558 925.812622,589.893188   C929.749268,590.945374 933.341797,592.031250 936.994629,592.847412   C940.809937,593.699951 941.938477,596.467041 942.248718,599.791260   C942.560913,603.135681 942.588684,606.088135 938.776062,608.210205   C924.141724,616.355408 908.984497,623.131226 892.402039,625.949768   C884.217712,627.340881 875.845520,627.523560 867.502136,627.402161   C859.393982,627.284119 851.282837,627.376526 842.962524,627.376526   C856.700623,582.232788 847.130432,544.059021 807.307678,518.158875   C776.789124,498.309998 742.976074,498.710815 712.453003,518.745789   C674.562500,543.616760 666.031616,580.948792 674.726562,624.377563   C665.960754,624.377563 657.230347,624.377563 647.999878,624.377686  M440.631287,384.377502   C438.063751,384.668243 435.339325,383.674286 433.071747,385.079407   C432.854889,385.461365 432.674438,385.631927 432.704834,385.746460   C438.280396,406.751740 443.867401,427.753967 449.467133,448.752808   C449.950745,450.566284 451.183990,451.496582 453.063995,451.676178   C456.044434,451.960999 459.015167,452.559357 461.995575,452.598114   C482.454376,452.863953 502.843842,454.468781 523.262268,455.539825   C547.338257,456.802765 571.458374,457.312500 595.511353,458.884003   C605.801270,459.556305 616.149902,458.914124 626.398621,460.479553   C628.647644,460.823059 631.341370,461.520203 633.367249,459.377625   C633.060059,456.623108 630.775696,455.829407 629.122131,454.627167   C617.674805,446.304169 605.880981,438.486816 593.839355,431.055237   C572.562988,417.924286 550.681946,405.948792 527.404236,396.671021   C499.786041,385.663239 470.764984,384.516174 440.631287,384.377502  M413.572571,449.647583   C417.190552,449.788788 418.811340,449.156250 418.005768,444.524353   C414.911255,426.730865 412.191162,408.861023 409.888855,390.948029   C409.228088,385.806854 407.536560,384.100128 402.449005,384.313538   C370.210052,385.665924 337.927490,385.955200 305.732086,388.395935   C301.792664,388.694580 299.647339,390.352570 299.290985,394.437622   C299.032928,397.396088 298.291779,400.310547 297.806732,403.251373   C295.946045,414.532501 294.121918,425.819702 292.239990,437.097290   C291.619293,440.816833 293.469543,442.342590 296.868896,442.567566   C302.669617,442.951508 308.472321,443.306183 314.275055,443.658966   C326.542664,444.404785 338.811188,445.135681 351.078644,445.883270   C371.639832,447.136261 392.200500,448.397400 413.572571,449.647583  M345.340454,481.750732   C353.244263,482.717834 361.142822,483.730225 369.052948,484.642395   C384.543976,486.428741 400.050110,488.086060 415.533691,489.933594   C430.685974,491.741547 445.802948,493.851257 460.962952,495.587891   C477.611237,497.494995 494.242035,499.518188 510.764069,502.314423   C532.675842,506.022888 554.515137,510.179810 576.467224,513.624084   C597.979858,516.999451 618.746399,522.404297 637.917358,533.052307   C639.453552,533.905579 640.959595,535.047852 643.296021,534.894287   C641.842163,527.537415 638.396912,521.472473 633.245972,516.309021   C624.233337,507.274414 612.621155,503.799042 600.618713,501.390106   C579.150085,497.081238 557.477051,494.047607 535.787354,491.058838   C512.924866,487.908447 489.965363,485.740753 467.017487,483.465576   C449.336060,481.712524 431.589020,480.627502 413.876495,479.179962   C390.699615,477.285828 367.543915,475.101776 344.349243,473.465637   C324.783508,472.085510 305.144226,471.690369 285.598724,470.104797   C275.801636,469.310028 265.991394,469.494080 256.194794,468.658875   C248.888245,468.035919 241.412750,467.281311 233.979080,468.552948   C242.143768,471.709503 250.826904,471.556061 259.292664,472.607208   C272.629822,474.263214 286.004822,475.619720 299.370850,477.036499   C314.387177,478.628174 329.411316,480.145996 345.340454,481.750732  M582.670776,590.646973   C594.834778,589.731079 607.078857,593.082703 620.443298,590.686768   C617.635132,588.956665 615.900146,588.616333 614.072571,588.274780   C598.249207,585.317688 582.344543,582.943359 566.350403,581.126343   C550.030212,579.272461 533.742004,577.117981 517.403931,575.445435   C501.218353,573.788574 484.981445,572.640198 468.778900,571.140442   C444.979736,568.937500 421.179962,566.729675 397.401611,564.315735   C379.730896,562.521973 362.708588,558.291138 347.098602,549.453186   C340.220093,545.558777 333.429352,541.509277 326.598755,537.530151   C327.325928,539.665894 328.428314,541.332092 329.892822,542.569763   C339.046906,550.306030 348.154694,558.095703 357.789856,565.250732   C368.080170,572.892334 378.967743,579.539246 391.977997,580.509644   C415.672089,582.276855 439.417419,583.375732 463.147797,584.632202   C479.086121,585.476013 495.039093,586.041382 510.979126,586.856018   C534.560547,588.061157 558.136230,589.377014 582.670776,590.646973  M896.816528,527.567139   C902.819824,527.422546 908.694519,529.658752 914.617065,529.183777   C915.126221,526.872314 913.854126,526.072693 912.836853,525.352539   C908.912598,522.574524 909.745483,520.278198 913.097473,517.618774   C915.741272,515.521301 918.640442,513.519531 920.677795,509.842590   C887.262695,502.231934 854.122498,496.850983 820.274536,495.654175   C831.467346,504.667603 842.489014,513.497681 855.006897,520.136230   C858.363342,521.916199 861.946106,523.316895 865.826599,523.772461   C875.864197,524.950684 885.891479,526.216553 896.816528,527.567139  M255.297180,410.788177   C247.097168,419.388489 238.897156,427.988831 230.683578,436.603394   C231.027039,436.746094 231.753448,437.274048 232.515121,437.331055   C248.220657,438.506683 263.929626,439.636871 279.639526,440.753632   C282.459442,440.954071 283.275604,439.167053 283.666107,436.750122   C285.908936,422.868683 288.227722,408.999542 290.511688,395.124725   C290.990784,392.214447 289.640167,390.845459 286.791840,390.436554   C280.763702,389.571198 275.678406,391.327545 271.324402,395.512238   C266.172333,400.463989 260.975861,405.369598 255.297180,410.788177  M186.234222,427.237732   C189.060867,428.226593 192.014923,428.955261 194.685455,430.262970   C199.129395,432.439026 202.274216,431.103729 205.839905,427.996613   C217.146179,418.144562 228.338913,408.177490 239.178421,397.815948   C240.532486,396.521606 242.625092,395.612671 242.307358,393.168396   C228.031006,387.994110 190.291885,407.586670 176.956940,422.078491   C177.579285,422.607300 178.125656,423.264038 178.824387,423.629517   C181.033417,424.784973 183.299423,425.831421 186.234222,427.237732  M102.624756,482.667969   C122.071678,482.554962 138.616211,475.467194 153.476715,460.945282   C134.544464,460.945282 116.609634,460.985107 98.675255,460.911591   C95.104004,460.896942 93.425545,462.465393 93.401688,465.940765   C93.369728,470.597382 93.425026,475.255310 93.335266,479.910583   C93.272232,483.180267 95.117172,483.900116 97.847069,483.518738   C99.157211,483.335693 100.443817,482.984161 102.624756,482.667969  z"/>
<path fill="#0e0b25" opacity="1.000000" stroke="none" d=" M376.000122,658.647827   C490.534302,658.943298 604.568298,657.829163 719.037964,658.961792   C694.526123,639.835266 683.317261,615.236694 687.030945,584.873718   C689.675293,563.253845 700.479309,545.601868 718.088013,532.670776   C744.863708,513.007690 791.166321,513.597351 817.883850,546.484863   C841.703064,575.804749 844.818298,628.523865 798.466675,660.406372   C835.608032,660.991699 872.039551,661.337891 908.410522,664.621338   C905.950989,667.161621 902.779053,666.997925 899.884277,667.214294   C889.104126,668.020203 878.312866,668.814697 867.511169,669.166443   C841.380981,670.017334 815.246643,670.875244 789.106934,671.274109   C658.647522,673.265076 528.177734,672.110168 397.712402,672.362244   C369.717712,672.416321 341.715332,672.633240 313.729828,672.089661   C287.909821,671.588257 262.088379,671.635437 236.272568,671.177551   C212.970032,670.764282 189.660721,670.225342 166.381805,669.149292   C148.288925,668.312866 130.154129,667.730591 112.159889,665.342896   C111.193604,665.214722 110.131508,665.320557 109.020706,663.158447   C132.010544,659.578979 154.962982,661.670532 179.241531,659.482422   C155.762878,642.068726 143.301636,620.323792 144.198212,592.220825   C144.909378,569.928955 154.234192,551.410583 171.036774,536.815430   C196.604507,514.606628 242.514496,513.775452 267.382446,539.263611   C284.198547,556.499084 293.356720,576.374207 291.656281,600.730591   C289.966736,624.931091 277.877777,643.260193 259.332367,658.648071   C298.054932,658.648071 336.777527,658.648071 376.000122,658.647827  M719.356506,569.868164   C709.526917,587.524658 709.266479,605.088928 720.597290,622.105103   C731.981873,639.201965 749.030640,645.180481 768.371948,642.360413   C801.247803,637.566772 821.228271,601.042603 801.526062,568.512939   C783.896057,539.404663 738.542175,537.959534 719.356506,569.868164  M185.231384,630.271484   C195.079529,639.505127 207.021805,644.385803 220.232483,643.405396   C254.093201,640.892639 270.104370,610.360413 264.561127,583.981262   C257.790405,551.760986 219.975189,535.935425 192.367691,553.662231   C165.959625,570.618958 162.505325,608.595093 185.231384,630.271484  z"/>
</svg>