<svg width="32" height="32" viewBox="0 0 146 162" fill="#fff" xmlns="http://www.w3.org/2000/svg">
<path d="M54.7522 22.0273C61.231 15.5387 67.4714 9.27106 73.7281 3.01978C74.9728 1.7762 76.1544 0.338563 78.1053 0.263567C87.493 -0.0972792 96.8756 -0.111584 106.203 0.404062C106.682 2.66474 105.15 3.40946 104.184 4.37043C81.1941 27.2458 58.2477 50.166 35.1338 72.9159C24.056 83.8193 23.877 86.766 34.7793 97.6854C45.6132 108.536 56.3835 119.451 67.232 130.287C73.0537 136.102 78.1625 135.904 83.9787 130.033C98.8147 115.056 113.756 100.184 128.551 85.1679C131.112 82.5686 133.104 82.4909 135.549 85.122C138.257 88.0364 140.994 90.9572 143.991 93.5607C147.018 96.1907 146.574 98.1935 143.933 100.814C130.536 114.104 117.258 127.514 103.944 140.887C99.0552 145.797 94.227 150.769 89.2907 155.631C80.6865 164.106 69.6101 164.378 60.9783 155.912C47.1925 142.391 33.6627 128.609 20.033 114.929C15.0409 109.919 9.84267 105.089 5.145 99.8152C-2.78302 90.9141 -2.13387 78.8148 6.32425 70.3774C22.397 54.3439 38.4553 38.2959 54.7522 22.0273Z" fill="white"/>
</svg>
